<svg width="128" height="36" viewBox="0 0 128 36" fill="none" xmlns="http://www.w3.org/2000/svg">
<path d="M27.079 21.3024L26.973 21.2642C26.3111 21.0319 25.5999 20.9769 24.9102 21.1049C24.2205 21.2329 23.5764 21.5393 23.0419 21.9936C22.4717 22.4827 22.0525 23.124 21.8333 23.8425C21.3329 23.8765 20.7561 23.9019 20.0776 23.9104L19.9801 20.8995C21.4643 20.8613 22.7662 20.7002 23.7246 20.115C24.3574 19.8479 24.9103 19.4216 25.3297 18.8777C25.749 18.3337 26.0206 17.6905 26.1179 17.0106C26.2152 16.3307 26.135 15.6372 25.885 14.9974C25.6351 14.3577 25.2239 13.7934 24.6915 13.3596L24.6449 13.3214L24.5388 13.3596C24.0501 13.5298 23.5999 13.795 23.2142 14.14C22.8285 14.485 22.5148 14.9029 22.2913 15.3696C21.8696 16.2471 21.7822 17.2482 22.0453 18.1855C21.3343 18.3546 20.6049 18.4344 19.8741 18.4229L19.8486 15.7216C19.8685 15.0673 20.0336 14.4256 20.3321 13.843C20.8022 12.9903 20.9526 11.9978 20.7561 11.0441C20.6186 10.5481 20.3845 10.0841 20.0672 9.67875C19.7499 9.27341 19.3557 8.93471 18.9072 8.68208L18.8139 8.62695L18.7206 8.68208C18.2698 8.93342 17.8731 9.27154 17.5536 9.67695C17.2341 10.0824 16.998 10.547 16.859 11.0441C16.7325 11.5993 16.7237 12.1748 16.8333 12.7336C16.9428 13.2924 17.1683 13.822 17.4951 14.2883C17.6387 14.5002 17.7182 14.749 17.7241 15.0049L17.6562 18.4229C16.9417 18.4292 16.2293 18.3451 15.5359 18.1727C15.7962 17.2574 15.7241 16.2793 15.3323 15.412C15.1143 14.9303 14.8009 14.4977 14.4109 14.1406C14.0209 13.7834 13.5626 13.509 13.0635 13.3341L12.9575 13.2959L12.8727 13.368C12.3222 13.8121 11.9041 14.3989 11.6641 15.0643C11.3221 16.0178 11.3548 17.0656 11.7554 17.996C12.1561 18.9264 12.8949 19.6701 13.8226 20.0768C14.8107 20.6875 16.1253 20.8528 17.6392 20.8952L17.5417 23.9019C16.859 23.9019 16.2483 23.8595 15.7097 23.8213C15.4901 23.0998 15.0702 22.4555 14.499 21.963C13.9278 21.4706 13.2286 21.1504 12.4826 21.0394C11.8409 20.9412 11.1848 21.0053 10.5743 21.226L10.4767 21.26V21.3702C10.3293 22.0607 10.3763 22.7785 10.6124 23.4439C10.8676 24.1624 11.3222 24.7933 11.9231 25.2627C12.5239 25.7322 13.2461 26.0206 14.005 26.0943C15.1729 26.2967 16.3565 26.3946 17.5417 26.3869C17.5417 27.0866 17.5078 27.7524 17.4908 28.3334L17.4654 29.2664H17.6689C18.3155 29.2632 18.9613 29.2207 19.6027 29.1391C20.1031 29.0755 20.2897 28.8465 20.2897 28.291L20.2049 26.3869C21.3604 26.4038 22.5149 26.3101 23.6525 26.107C24.4106 26.0267 25.13 25.7313 25.7258 25.2557C26.3216 24.7801 26.769 24.1441 27.0154 23.4227C27.2324 22.7673 27.2676 22.0653 27.1172 21.3914L27.079 21.3024Z" fill="white"/>
<path d="M19.0298 0.0856342C18.9729 0.0307023 18.8969 0 18.8178 0C18.7387 0 18.6626 0.0307023 18.6057 0.0856342L0.0357772 19.0627C0.0181017 19.0824 0.00637577 19.1067 0.00196096 19.1328C-0.00245386 19.1589 0.000620598 19.1857 0.0108324 19.2101C0.0210442 19.2346 0.0379754 19.2556 0.0596543 19.2708C0.0813333 19.2859 0.106872 19.2947 0.133311 19.2959H5.35359L5.33239 28.6254C5.33239 29.0877 5.51051 29.27 5.97274 29.27C6.64348 29.2584 7.31186 29.1874 7.9701 29.058L8.11853 29.0113V28.7272C8.09308 28.2014 8.05066 27.3278 8.0549 25.6442V16.7388H5.91336L18.822 3.54603L31.6713 16.8024H29.5509V23.8335V23.8674C29.5189 25.0092 29.5543 26.152 29.6569 27.2896C29.6951 28.0572 29.9029 28.9096 31.8621 29.3082L32.0996 29.3548L32.1335 19.3765H37.4598C37.4863 19.3752 37.5118 19.3665 37.5335 19.3513C37.5551 19.3361 37.5721 19.3151 37.5823 19.2907C37.5925 19.2663 37.5956 19.2395 37.5912 19.2134C37.5867 19.1873 37.575 19.163 37.5573 19.1433L19.0298 0.0856342Z" fill="white"/>
<path d="M70.0528 33.846C67.2922 33.846 63.6918 32.9173 61.0584 30.4026C57.916 27.3917 51.4108 20.984 49.4686 18.6771C51.5889 16.4635 55.4055 12.579 57.3266 10.6198C57.9923 9.8904 57.9924 9.55962 57.2036 9.40696C56.7261 9.29759 56.2388 9.23651 55.749 9.22461C53.0774 12.1083 49.1039 16.3235 46.5849 18.8722V10.9124C46.5849 9.60628 46.5552 9.42392 46.1312 9.42392C45.3581 9.45964 44.5879 9.54036 43.8242 9.66564C43.8836 10.2424 43.9133 11.4849 43.9133 13.5204V28.1465C43.9133 28.5706 44.0362 28.6639 44.4306 28.6639C45.1854 28.6486 45.9374 28.5678 46.6782 28.4222C46.6485 27.8158 46.5849 26.815 46.5849 24.6904V19.1775C47.4967 20.2716 56.0035 29.0032 58.6242 31.6578C61.405 34.4321 65.1707 35.9933 69.0987 36.0003C71.7703 36.0003 73.4963 35.4236 74.9848 34.3634C75.2548 34.1175 75.47 33.8175 75.6161 33.4828C75.7623 33.1481 75.8361 32.7863 75.8329 32.4212C75.8329 32.4212 75.7735 32.4212 75.7735 32.3915C74.0407 33.4029 72.0584 33.9069 70.0528 33.846Z" fill="white"/>
<path d="M76.2622 9.42268C75.5421 9.41549 74.8224 9.45658 74.1079 9.54566C73.6541 9.57535 73.5015 9.69832 73.5015 10.3047V17.709H63.6376V11.0002C63.6376 9.60503 63.5486 9.42268 63.1203 9.42268C62.3675 9.44656 61.6176 9.52736 60.877 9.6644C60.9363 10.2411 60.966 11.4837 60.966 13.5192V19.8463C60.966 22.3907 60.877 27.4795 60.877 27.4795C60.877 27.4795 62.1195 28.7517 62.8786 28.6457C63.485 28.5524 63.6376 28.4633 63.6376 27.8569V19.5579H69.2184C71.89 19.5579 72.8908 19.5282 73.4972 19.4689V28.175C73.4972 28.5694 73.6499 28.6627 73.951 28.6627C74.7249 28.6393 75.496 28.5585 76.2579 28.4209C76.2282 27.8145 76.1646 26.8137 76.1646 24.6891V14.8847C76.1689 12.3657 76.1986 10.5761 76.2622 9.42268Z" fill="white"/>
<path d="M85.6968 26.8095C84.4579 26.8495 83.218 26.7686 81.9947 26.5677V19.647H87.215C88.2158 19.647 88.8222 19.4052 89.0639 17.7641H81.999V11.3607H86.1845C87.5203 11.3607 88.1861 11.3607 88.5805 11.1783C89.0168 10.729 89.2758 10.1371 89.3099 9.51172H81.6046C80.8035 9.57266 80.0107 9.71474 79.2383 9.93579C79.3273 11.0893 79.3273 12.3318 79.3273 13.7524V27.7679L79.7514 28.3446C80.5105 28.5269 82.6647 28.6457 85.1837 28.6457C86.4092 28.6716 87.6352 28.6305 88.8561 28.5227C89.2121 28.346 89.5229 28.0902 89.7647 27.7749C90.0066 27.4596 90.173 27.0931 90.2513 26.7035L90.192 26.6441C89.0046 26.7798 87.0623 26.8095 85.6968 26.8095Z" fill="white"/>
<path d="M105.883 9.66568C105.333 9.50159 104.761 9.42013 104.187 9.42396C103.61 10.4544 99.7594 16.2091 98.6356 17.829C97.0877 15.4627 95.1158 12.4603 94.0259 10.7598C93.3602 9.72928 93.0548 9.42396 92.6604 9.42396C91.877 9.46994 91.1021 9.61237 90.3535 9.84803V9.94132C92.0201 12.2186 95.2091 16.8876 96.757 19.3472C96.948 19.7543 97.0214 20.2067 96.969 20.6533V28.1169C96.969 28.5706 97.0623 28.6639 97.4227 28.6639C98.2089 28.6882 98.9948 28.6069 99.7593 28.4222C99.7297 27.7861 99.6661 26.8447 99.6661 24.7837V20.4158C99.6403 19.9897 99.747 19.5661 99.9714 19.203C100.395 18.5966 105.06 11.9938 105.857 10.8276C106.277 10.183 106.307 9.81834 105.883 9.66568Z" fill="white"/>
<path d="M108.113 9.36523C107.762 9.76331 107.475 10.2141 107.264 10.701C107.082 11.1887 107.294 11.3668 107.752 11.3668H113.549V28.1133C113.549 28.567 113.702 28.6603 114.003 28.6603C114.778 28.6602 115.551 28.5792 116.31 28.4186C116.28 27.8122 116.221 26.8114 116.221 24.7165V11.3668H121.772C122.093 11.1736 122.362 10.9034 122.553 10.5807C122.744 10.2579 122.851 9.89266 122.866 9.51789H112.616C109.219 9.51789 108.537 9.48397 108.113 9.36523Z" fill="white"/>
<path d="M127.099 24.7157V11.0014C127.099 9.63586 127.069 9.42383 126.611 9.42383C125.849 9.4532 125.089 9.53396 124.338 9.66555C124.397 10.2126 124.427 11.4551 124.427 13.4822V28.0744C124.427 28.562 124.58 28.6511 124.915 28.6511C125.68 28.6493 126.443 28.5683 127.192 28.4094C127.158 27.8114 127.099 26.8106 127.099 24.7157Z" fill="white"/>
</svg>
