<svg width="26" height="27" viewBox="0 0 26 27" fill="none" xmlns="http://www.w3.org/2000/svg">
<mask id="path-1-inside-1_27_86" fill="white">
<path d="M24.752 12.4052V13.5052C24.7508 16.0929 23.9132 18.6109 22.364 20.6837C20.8148 22.7565 18.6371 24.2729 16.1557 25.0069C13.6742 25.7409 11.022 25.6531 8.59455 24.7566C6.16709 23.8601 4.09447 22.2029 2.6858 20.0322C1.27713 17.8615 0.607885 15.2936 0.777885 12.7114C0.947885 10.1293 1.94802 7.67129 3.62912 5.70401C5.31022 3.73673 7.58222 2.36558 10.1063 1.79505C12.6303 1.22452 15.2712 1.48519 17.635 2.53818"/>
</mask>
<path d="M24.752 13.5052L26.252 13.5059V13.5052H24.752ZM23.252 12.4052V13.5052H26.252V12.4052H23.252ZM23.252 13.5045C23.2509 15.7688 22.518 17.972 21.1625 19.7857L23.5655 21.5817C25.3083 19.2498 26.2506 16.417 26.252 13.5059L23.252 13.5045ZM21.1625 19.7857C19.807 21.5994 17.9015 22.9263 15.7302 23.5685L16.5812 26.4453C19.3728 25.6196 21.8227 23.9136 23.5655 21.5817L21.1625 19.7857ZM15.7302 23.5685C13.559 24.2108 11.2383 24.1339 9.11423 23.3495L8.07487 26.1637C10.8058 27.1723 13.7895 27.2711 16.5812 26.4453L15.7302 23.5685ZM9.11423 23.3495C6.9902 22.565 5.17665 21.115 3.94407 19.2156L1.42753 20.8487C3.01228 23.2908 5.34398 25.1551 8.07487 26.1637L9.11423 23.3495ZM3.94407 19.2156C2.71148 17.3163 2.12589 15.0693 2.27464 12.81L-0.718875 12.6129C-0.910125 15.5178 -0.157228 18.4067 1.42753 20.8487L3.94407 19.2156ZM2.27464 12.81C2.42339 10.5506 3.29851 8.39985 4.76948 6.67848L2.48877 4.72954C0.597524 6.94273 -0.527625 9.70798 -0.718875 12.6129L2.27464 12.81ZM4.76948 6.67848C6.24044 4.95711 8.22844 3.75735 10.437 3.25814L9.77556 0.331961C6.93601 0.973803 4.38001 2.51635 2.48877 4.72954L4.76948 6.67848ZM10.437 3.25814C12.6455 2.75893 14.9563 2.98701 17.0246 3.90838L18.2453 1.16798C15.5861 -0.0166283 12.6151 -0.309881 9.77556 0.331961L10.437 3.25814Z" fill="#2BB671" mask="url(#path-1-inside-1_27_86)"/>
<mask id="path-3-inside-2_27_86" fill="white">
<path d="M24.7504 3.90601L12.7504 15.917L9.15039 12.317"/>
</mask>
<path d="M12.7504 15.917L11.6897 16.9777L12.7509 18.0388L13.8115 16.9772L12.7504 15.917ZM23.6892 2.84583L11.6892 14.8568L13.8115 16.9772L25.8115 4.96618L23.6892 2.84583ZM13.8111 14.8563L10.2111 11.2563L8.08973 13.3777L11.6897 16.9777L13.8111 14.8563Z" fill="#2BB671" mask="url(#path-3-inside-2_27_86)"/>
</svg>
